<svg width="100" height="100" viewBox="0 0 100 100" fill="none" xmlns="http://www.w3.org/2000/svg">
<g clip-path="url(#clip0)">
<path d="M81.7363 66.5322V96.5022V96.6016H100.001V77.0893L81.7363 66.5322Z" fill="#5A5656"/>
<path d="M0 96.6016H18.2642V96.5022V66.509L0 77.0894V96.6016Z" fill="#5A5656"/>
<path d="M21.4897 56.3094V96.5023H40.2146V79.4619C40.2146 74.1174 44.5475 69.7845 49.892 69.7845H50.1075C55.452 69.7845 59.7849 74.1174 59.7849 79.4619V96.5023H78.5097V56.3094L49.9997 32.6603L21.4897 56.3094Z" fill="#5A5656"/>
<path d="M8.87207 52.1248L13.7095 57.9951L50.0005 28.0913L86.2915 57.9951L91.1289 52.1248L52.2585 20.0958V12.9684H59.2363V8.45225H52.2585V3.39838H47.7424V8.45225H40.7647V12.9684H47.7424V20.0958L8.87207 52.1248Z" fill="#5A5656"/>
</g>
<defs>
<clipPath id="clip0">
<rect width="100" height="100" fill="white"/>
</clipPath>
</defs>
</svg>
