<svg width="40" height="40" viewBox="0 0 40 40" fill="none" xmlns="http://www.w3.org/2000/svg">
<g clip-path="url(#clip0)">
<path d="M37.3183 9.96076C35.5298 6.89672 33.1038 4.47072 30.0397 2.68231C26.975 0.893981 23.6295 0 20.0006 0C16.372 0 13.0255 0.893981 9.96139 2.68231C6.89709 4.47045 4.47109 6.89645 2.68258 9.96076C0.893981 13.0252 0 16.3718 0 20C0 23.6285 0.894254 26.9745 2.68231 30.0392C4.47072 33.1032 6.89672 35.5292 9.96103 37.3178C13.0255 39.106 16.3718 40.0001 20.0002 40.0001C23.6287 40.0001 26.9753 39.106 30.0396 37.3178C33.1037 35.5298 35.5296 33.1032 37.318 30.0392C39.106 26.9748 39.9999 23.6283 39.9999 20C40 16.3714 39.106 13.0248 37.3183 9.96076ZM29.4273 24.7132C29.7572 25.0428 29.9224 25.4343 29.9224 25.8857C29.9224 26.3539 29.7572 26.7535 29.4273 27.083L27.0838 29.4273C26.7541 29.7568 26.3546 29.9217 25.8857 29.9217C25.4343 29.9217 25.0432 29.7568 24.7139 29.4273L20.0003 24.7132L15.2866 29.4273C14.9568 29.7568 14.5662 29.9217 14.1148 29.9217C13.646 29.9217 13.2467 29.7568 12.9168 29.4273L10.5729 27.083C10.2431 26.7535 10.0781 26.3539 10.0781 25.8857C10.0781 25.4343 10.2432 25.0429 10.5729 24.7132L15.2866 20L10.5729 15.2862C10.2431 14.9568 10.0781 14.5658 10.0781 14.1144C10.0781 13.6456 10.2432 13.2463 10.5729 12.9164L12.9168 10.5729C13.2467 10.2431 13.646 10.0781 14.1148 10.0781C14.5662 10.0781 14.9568 10.2432 15.2866 10.5729L20.0003 15.2862L24.7139 10.5729C25.0431 10.2431 25.4343 10.0781 25.8857 10.0781C26.3546 10.0781 26.7541 10.2432 27.0838 10.5729L29.4273 12.9164C29.7572 13.2463 29.9224 13.6456 29.9224 14.1144C29.9224 14.5657 29.7572 14.9568 29.4273 15.2862L24.7139 20L29.4273 24.7132Z" fill="#FDA0EE"/>
</g>
<defs>
<clipPath id="clip0">
<rect width="40" height="40" fill="white"/>
</clipPath>
</defs>
</svg>
