<svg width="40" height="40" viewBox="0 0 40 40" fill="none" xmlns="http://www.w3.org/2000/svg">
<path d="M40 29.9998C40 30.8767 39.7533 31.6896 39.3582 32.4049L26.7286 18.2741L39.2213 7.3441C39.7073 8.11531 40 9.02123 40 10.0002V29.9998ZM20 20.8398L37.3832 5.62996C36.6699 5.23945 35.8666 4.99997 35.0001 4.99997H4.99997C4.13239 4.99997 3.32886 5.23945 2.61841 5.62996L20 20.8398ZM24.8463 19.9197L20.8226 23.4426C20.5873 23.6476 20.2942 23.75 20 23.75C19.7057 23.75 19.4127 23.6476 19.1773 23.4426L15.1527 19.9195L2.36326 34.2309C3.12985 34.7118 4.02827 34.9999 4.99989 34.9999H35.0001C35.9716 34.9999 36.8704 34.7118 37.6367 34.2309L24.8463 19.9197ZM0.778878 7.34402C0.292986 8.11523 0 9.02115 0 10.0002V29.9999C0 30.8768 0.245501 31.6897 0.642112 32.405L13.2703 18.2717L0.778878 7.34402Z" fill="#5A5656"/>
</svg>
