<svg width="20" height="25" viewBox="0 0 20 25" fill="none" xmlns="http://www.w3.org/2000/svg">
<path d="M19.5275 6.22226C19.4242 5.88874 19.2143 5.53337 19.0591 5.22223C17.2014 1.37778 13.1424 0 9.8649 0C5.47743 0 0.64515 2.5334 0 7.75535V8.82222C0 8.86674 0.0178196 9.26669 0.0431315 9.46676C0.404788 11.9554 2.68522 14.6003 4.38835 17.0889C6.22066 19.7553 8.12196 22.3782 10.0056 25C11.1671 23.2891 12.3245 21.5556 13.4595 19.889C13.7689 19.3998 14.128 18.911 14.4377 18.4442C14.6441 18.1333 15.0384 17.8225 15.2185 17.5332C17.0508 14.6445 20 11.7335 20 8.86668V7.68897C20.0001 7.37818 19.5527 6.28928 19.5275 6.22226ZM9.94522 11.5779C8.65553 11.5779 7.24387 11.0226 6.54708 9.48902C6.44327 9.2449 6.45164 8.75566 6.45164 8.71085V8.02196C6.45164 6.06689 8.3794 5.17783 10.0565 5.17783C12.1211 5.17783 13.7179 6.60024 13.7179 8.37815C13.7179 10.156 12.0099 11.5779 9.94522 11.5779Z" fill="#FDA0EE"/>
</svg>
