<svg width="80" height="80" viewBox="0 0 80 80" fill="none" xmlns="http://www.w3.org/2000/svg">
<g clip-path="url(#clip0)">
<path d="M29.7357 71.2591L22.4548 60.9044L22.5491 60.0734C17.2926 58.5459 18.8677 59.0038 16.1246 58.2067L15.7613 61.4041C15.6702 62.2058 15.8762 63.013 16.3402 63.6727L24.3416 75.0517C25.3893 76.5416 27.4457 76.8997 28.9351 75.8524C30.4246 74.8052 30.783 72.7484 29.7357 71.2591Z" fill="#FDA0EE"/>
<path d="M8.44041 55.9741L7.35963 60.6128C7.3026 60.8573 7.27385 61.1077 7.27369 61.3587L7.26416 76.7006C7.26291 78.5216 8.73822 79.9986 10.5592 79.9998C10.5598 79.9998 10.5604 79.9998 10.5612 79.9998C12.381 79.9997 13.8571 78.5248 13.8581 76.7048L13.8674 61.7409L14.7817 57.8167L8.44041 55.9741Z" fill="#FDA0EE"/>
<path d="M56.9129 18.6931C60.2179 18.6931 62.8971 16.0139 62.8971 12.7089C62.8971 9.40393 60.2179 6.7247 56.9129 6.7247C53.6079 6.7247 50.9287 9.40393 50.9287 12.7089C50.9287 16.0139 53.6079 18.6931 56.9129 18.6931Z" fill="#FDA0EE"/>
<path d="M22.2123 15.0672C21.3233 18.127 23.119 21.2922 26.1356 22.1358L29.0053 18.4708L29.504 11.2625C26.4131 10.2191 23.1119 11.9719 22.2123 15.0672Z" fill="#FDA0EE"/>
<path d="M74.0467 25.8688L63.7607 21.4043C63.3979 21.2469 63.0067 21.1655 62.6112 21.1655C59.2359 21.1655 55.8509 21.1655 52.4782 21.1655C51.7446 20.2262 37.5438 2.04477 36.8123 1.10852C35.8335 -0.144608 34.014 -0.370232 32.7592 0.610392C31.6682 1.46258 31.0988 3.17555 32.4285 4.87805C32.3595 5.20992 32.4467 4.15586 31.4343 18.7893L23.8363 25.0724L24.9435 23.6584C24.8431 23.6132 24.8776 23.6171 24.4195 23.4704C23.6715 23.2309 21.6103 22.5896 15.504 20.6777L9.82979 11.8251C8.9215 10.408 7.0365 9.99539 5.61963 10.9041C4.2026 11.8124 3.79025 13.6974 4.69854 15.1143L10.9709 24.8993C11.3571 25.5019 11.9429 25.9491 12.626 26.163C14.996 26.9051 14.1237 26.6319 16.8828 27.4959L5.39479 50.4652C4.96479 51.3249 5.36197 52.3555 6.21479 52.6035C10.3301 53.7993 20.9487 56.8849 25.0668 58.0815C25.9162 58.3282 26.8073 57.6727 26.9049 56.7157L29.7009 29.3507L27.721 29.7691L36.3267 22.6527C36.9701 22.1205 37.3671 21.3477 37.4248 20.5144L38.012 12.0262C49.7146 27.0088 48.8678 25.9784 49.2345 26.2807L49.2359 76.5341C49.2359 78.448 50.7873 79.9991 52.7009 79.9991C54.6145 79.9991 56.1659 78.448 56.1659 76.5341V48.8379H57.6626C57.6631 49.3827 57.2582 47.3183 63.6673 77.2594C64.0689 79.1358 65.9157 80.3227 67.7809 79.9224C69.6521 79.5219 70.8443 77.6802 70.4438 75.809L64.5293 48.1774V40.138C64.6429 40.0601 64.7535 39.9758 64.8576 39.8798L74.8571 30.6384C76.3867 29.2244 75.9589 26.6988 74.0467 25.8688ZM64.5292 32.3194V28.0335L67.6846 29.403L64.5292 32.3194Z" fill="#FDA0EE"/>
</g>
<defs>
<clipPath id="clip0">
<rect width="80" height="80" fill="white"/>
</clipPath>
</defs>
</svg>
