<svg width="20" height="20" viewBox="0 0 20 20" fill="none" xmlns="http://www.w3.org/2000/svg">
<path d="M13.7681 8.59375C13.7681 8.16227 13.4183 7.8125 12.9868 7.8125H4.93994C4.50846 7.8125 4.15869 8.16227 4.15869 8.59375C4.15869 9.02523 4.50846 9.375 4.93994 9.375H12.9868C13.4183 9.375 13.7681 9.02523 13.7681 8.59375Z" fill="#FDA0EE"/>
<path d="M4.93994 10.9375C4.50846 10.9375 4.15869 11.2873 4.15869 11.7188C4.15869 12.1502 4.50846 12.5 4.93994 12.5H9.82708C10.2586 12.5 10.6083 12.1502 10.6083 11.7188C10.6083 11.2873 10.2586 10.9375 9.82708 10.9375H4.93994Z" fill="#FDA0EE"/>
<path d="M6.77594 18.4375H4.16309C3.30152 18.4375 2.60059 17.7366 2.60059 16.875V3.125C2.60059 2.26344 3.30152 1.5625 4.16309 1.5625H13.7681C14.6297 1.5625 15.3306 2.26344 15.3306 3.125V7.92969C15.3306 8.36117 15.6804 8.71094 16.1119 8.71094C16.5434 8.71094 16.8931 8.36117 16.8931 7.92969V3.125C16.8931 1.40188 15.4913 0 13.7681 0H4.16309C2.43996 0 1.03809 1.40188 1.03809 3.125V16.875C1.03809 18.5981 2.43996 20 4.16309 20H6.77594C7.20742 20 7.55719 19.6502 7.55719 19.2188C7.55719 18.7873 7.20742 18.4375 6.77594 18.4375Z" fill="#FDA0EE"/>
<path d="M18.2769 11.3114C17.3631 10.3976 15.8762 10.3975 14.963 11.3108L10.6738 15.5905C10.5827 15.6814 10.5155 15.7933 10.4781 15.9164L9.544 18.9916C9.46119 19.2643 9.53334 19.5604 9.73232 19.7643C9.88139 19.9171 10.0839 20 10.2916 20C10.3611 20 10.4312 19.9907 10.5001 19.9716L13.6534 19.0981C13.7832 19.0622 13.9015 18.9933 13.9968 18.8982L18.277 14.626C19.1908 13.7122 19.1908 12.2253 18.2769 11.3114ZM13.0383 17.6472L11.4519 18.0866L11.9162 16.5582L14.8103 13.6705L15.9154 14.7756L13.0383 17.6472ZM17.1727 13.5207L17.0213 13.6718L15.9164 12.5669L16.0673 12.4163C16.3719 12.1117 16.8675 12.1117 17.1721 12.4163C17.4767 12.7209 17.4767 13.2166 17.1727 13.5207Z" fill="#FDA0EE"/>
<path d="M12.9868 4.6875H4.93994C4.50846 4.6875 4.15869 5.03727 4.15869 5.46875C4.15869 5.90023 4.50846 6.25 4.93994 6.25H12.9868C13.4183 6.25 13.7681 5.90023 13.7681 5.46875C13.7681 5.03727 13.4183 4.6875 12.9868 4.6875Z" fill="#FDA0EE"/>
</svg>
