<svg width="50" height="50" viewBox="0 0 50 50" fill="none" xmlns="http://www.w3.org/2000/svg">
<path d="M26.1717 11.6964C29.4017 11.6964 32.0201 9.07807 32.0201 5.8482C32.0201 2.61833 29.4017 0 26.1717 0C22.9417 0 20.3232 2.61833 20.3232 5.8482C20.3232 9.07807 22.9417 11.6964 26.1717 11.6964Z" fill="#FDA0EE"/>
<path d="M26.1718 50C28.1095 50 29.6804 48.4292 29.6804 46.4914C29.6804 44.5537 28.1095 42.9829 26.1718 42.9829C24.234 42.9829 22.6631 44.5537 22.6631 46.4914C22.6631 48.4292 24.234 50 26.1718 50Z" fill="#FDA0EE"/>
<path d="M11.8016 17.0626C14.7088 17.0626 17.0655 14.7059 17.0655 11.7989C17.0655 8.89176 14.7088 6.5351 11.8016 6.5351C8.89435 6.5351 6.5376 8.89176 6.5376 11.7989C6.5376 14.7059 8.89435 17.0626 11.8016 17.0626Z" fill="#FDA0EE"/>
<path d="M40.5424 43.4611C42.1574 43.4611 43.4666 42.152 43.4666 40.537C43.4666 38.9221 42.1574 37.6129 40.5424 37.6129C38.9274 37.6129 37.6182 38.9221 37.6182 40.537C37.6182 42.152 38.9274 43.4611 40.5424 43.4611Z" fill="#FDA0EE"/>
<path d="M5.8485 30.8482C8.43186 30.8482 10.5261 28.7541 10.5261 26.1708C10.5261 23.5876 8.43186 21.4934 5.8485 21.4934C3.26513 21.4934 1.1709 23.5876 1.1709 26.1708C1.1709 28.7541 3.26513 30.8482 5.8485 30.8482Z" fill="#FDA0EE"/>
<path d="M46.4931 28.5066C47.7843 28.5066 48.831 27.46 48.831 26.1689C48.831 24.8778 47.7843 23.8311 46.4931 23.8311C45.202 23.8311 44.1553 24.8778 44.1553 26.1689C44.1553 27.46 45.202 28.5066 46.4931 28.5066Z" fill="#FDA0EE"/>
<path d="M8.90728 37.647C7.3076 39.2466 7.3076 41.8349 8.90728 43.4345C10.5051 45.0341 13.0972 45.0341 14.695 43.4345C16.2947 41.8349 16.2947 39.2466 14.695 37.647C13.0972 36.0455 10.507 36.0303 8.90728 37.647Z" fill="#FDA0EE"/>
<path d="M40.5405 13.5522C41.5089 13.5522 42.2939 12.7672 42.2939 11.7989C42.2939 10.8305 41.5089 10.0455 40.5405 10.0455C39.5721 10.0455 38.7871 10.8305 38.7871 11.7989C38.7871 12.7672 39.5721 13.5522 40.5405 13.5522Z" fill="#FDA0EE"/>
</svg>
