<svg width="50" height="50" viewBox="0 0 50 50" fill="none" xmlns="http://www.w3.org/2000/svg">
<g clip-path="url(#clip0)">
<path d="M15.6478 27.0088L1.53652 11.3855C0.620214 11.9303 0 12.9198 0 14.0627V39.0631C0 40.7889 1.39922 42.1875 3.12499 42.1875H29.3579L23.6091 35.8233C19.2375 35.1713 15.8599 31.5099 15.6478 27.0088Z" fill="#828282"/>
<path d="M46.8747 10.9376H35.9372L33.6759 6.41484C33.1464 5.35625 32.0645 4.68759 30.8805 4.68759H19.1189C17.9349 4.68759 16.853 5.35634 16.3235 6.41494L15.2653 8.53134L8.57208 1.03457C7.42003 -0.247945 5.4425 -0.352535 4.1592 0.801858C2.8759 1.95693 2.77219 3.93301 3.92726 5.21552L42.9889 48.9655C43.6054 49.6514 44.4568 50 45.3129 50C46.0575 50 46.8051 49.7353 47.4018 49.1982C48.6851 48.0431 48.7888 46.0666 47.6338 44.7841L45.316 42.1874H46.8747C48.6005 42.1874 49.9997 40.7889 49.9997 39.063V14.0627C49.9997 12.3369 48.6004 10.9376 46.8747 10.9376ZM23.1633 17.3769C23.7576 17.2579 24.3702 17.1877 24.9997 17.1877C30.177 17.1877 34.3747 21.385 34.3747 26.5629C34.3747 27.5612 34.203 28.5156 33.9131 29.4171L23.1633 17.3769Z" fill="#828282"/>
</g>
<defs>
<clipPath id="clip0">
<rect width="50" height="50" fill="white"/>
</clipPath>
</defs>
</svg>
