<svg width="20" height="20" viewBox="0 0 20 20" fill="none" xmlns="http://www.w3.org/2000/svg">
<g clip-path="url(#clip0)">
<path d="M16.6134 2.00617H13.0409V0.652187C13.0409 0.292031 12.7489 0 12.3887 0H7.6117C7.25154 0 6.95951 0.291992 6.95951 0.652187V2.00617H3.38705C3.02689 2.00617 2.73486 2.29816 2.73486 2.65836V4.66449C2.73486 5.02465 3.02686 5.31668 3.38705 5.31668H3.58518L4.18127 19.3755C4.19604 19.7246 4.48342 20 4.83283 20H15.1675C15.517 20 15.8043 19.7246 15.8191 19.3755L16.4151 5.31664H16.6133C16.9735 5.31664 17.2655 5.02465 17.2655 4.66445V2.65836C17.2656 2.29813 16.9736 2.00617 16.6134 2.00617ZM8.26389 1.30434H11.7365V2.00617H8.26389V1.30434V1.30434ZM14.5425 18.6957H5.45795L4.89068 5.31668H15.1097L14.5425 18.6957ZM15.9612 4.0123C15.3686 4.0123 4.39424 4.0123 4.03924 4.0123V3.31051H15.9612V4.0123Z" fill="#FDA0EE"/>
<path d="M7.37631 7.31656C7.01615 7.31656 6.72412 7.60855 6.72412 7.96875V16.0435C6.72412 16.4037 7.01611 16.6957 7.37631 16.6957C7.73646 16.6957 8.0285 16.4037 8.0285 16.0435V7.96875C8.02846 7.60855 7.73646 7.31656 7.37631 7.31656Z" fill="#FDA0EE"/>
<path d="M10.0003 7.31656C9.64018 7.31656 9.34814 7.60855 9.34814 7.96875V16.0435C9.34814 16.4037 9.6401 16.6957 10.0003 16.6957C10.3605 16.6957 10.6525 16.4037 10.6525 16.0435V7.96875C10.6525 7.60855 10.3605 7.31656 10.0003 7.31656Z" fill="#FDA0EE"/>
<path d="M12.6239 7.31656C12.2637 7.31656 11.9717 7.60855 11.9717 7.96875V16.0435C11.9717 16.4037 12.2637 16.6957 12.6239 16.6957C12.9841 16.6957 13.2761 16.4037 13.2761 16.0435V7.96875C13.2761 7.60855 12.9841 7.31656 12.6239 7.31656Z" fill="#FDA0EE"/>
</g>
<defs>
<clipPath id="clip0">
<rect width="20" height="20" fill="white"/>
</clipPath>
</defs>
</svg>
