<svg width="35" height="35" viewBox="0 0 35 35" fill="none" xmlns="http://www.w3.org/2000/svg">
<g clip-path="url(#clip0)">
<path d="M34.01 29.2352L25.2894 20.5147C24.6439 19.8692 23.802 19.5404 22.9559 19.5268C26.2275 14.6526 25.7119 7.97326 21.4077 3.66903C16.5166 -1.22199 8.55838 -1.22199 3.66736 3.66903C-1.22375 8.56004 -1.22375 16.5183 3.66736 21.4093C7.97159 25.7136 14.6509 26.2292 19.5252 22.9576C19.5389 23.8036 19.8675 24.6455 20.5131 25.291L29.2336 34.0116C30.5526 35.3305 32.6909 35.3305 34.0099 34.0116C35.3288 32.6925 35.3288 30.5541 34.01 29.2352ZM18.6784 18.68C15.2923 22.0661 9.78279 22.0661 6.39671 18.68C3.01062 15.2939 3.01062 9.78436 6.39671 6.39828C9.78279 3.01219 15.2923 3.01219 18.6784 6.39828C22.0645 9.78427 22.0645 15.2939 18.6784 18.68Z" fill="#FDA0EE"/>
</g>
<defs>
<clipPath id="clip0">
<rect width="35" height="35" fill="white"/>
</clipPath>
</defs>
</svg>
