<svg width="30" height="30" viewBox="0 0 30 30" fill="none" xmlns="http://www.w3.org/2000/svg">
<circle cx="15" cy="15" r="15" fill="#FDA0EE"/>
<path d="M22.622 10.7289C22.5393 10.4754 22.3715 10.2054 22.2473 9.9689C20.7611 7.04711 17.5139 6 14.8919 6C11.3819 6 7.51612 7.92539 7 11.8941V12.7049C7 12.7387 7.01426 13.0427 7.03451 13.1947C7.32383 15.0861 9.14818 17.0962 10.5107 18.9876C11.9765 21.014 13.4976 23.0074 15.0045 25C15.9337 23.6997 16.8596 22.3823 17.7676 21.1156C18.0151 20.7439 18.3024 20.3724 18.5501 20.0176C18.7153 19.7813 19.0307 19.5451 19.1748 19.3253C20.6406 17.1298 23 14.9174 23 12.7387V11.8436C23.0001 11.6074 22.6421 10.7799 22.622 10.7289ZM14.9562 14.7992C13.9244 14.7992 12.7951 14.3772 12.2377 13.2117C12.1546 13.0261 12.1613 12.6543 12.1613 12.6202V12.0967C12.1613 10.6108 13.7035 9.93515 15.0452 9.93515C16.6969 9.93515 17.9743 11.0162 17.9743 12.3674C17.9743 13.7186 16.6079 14.7992 14.9562 14.7992Z" fill="#FFFAFA"/>
</svg>
