<svg width="30" height="30" viewBox="0 0 30 30" fill="none" xmlns="http://www.w3.org/2000/svg">
<circle cx="15" cy="15" r="15" fill="#FDA0EE"/>
<path opacity="0.9" d="M14.925 7.42499C11.95 7.42499 9.315 9.03999 7.955 11.505L6 9.54999V15.075H11.525L9.145 12.695C10.25 10.57 12.375 9.12499 14.925 9.12499C18.41 9.12499 21.3 12.015 21.3 15.5C21.3 18.985 18.41 21.875 14.925 21.875C12.12 21.875 9.825 20.09 8.89 17.625H7.105C8.04 21.025 11.185 23.575 14.925 23.575C19.43 23.575 23 19.92 23 15.5C23 11.08 19.345 7.42499 14.925 7.42499ZM13.65 11.675V16.01L17.645 18.39L18.325 17.285L14.925 15.245V11.675H13.65V11.675Z" fill="#FFFAFA"/>
</svg>
