<svg width="30" height="30" viewBox="0 0 30 30" fill="none" xmlns="http://www.w3.org/2000/svg">
<circle cx="15" cy="15" r="15" fill="#FDA0EE"/>
<path d="M20.9823 9.04407H8.01775C6.90517 9.04407 6 9.91334 6 10.9818V20.0183C6 21.0867 6.90517 21.956 8.01775 21.956H20.9823C22.0949 21.956 23 21.0867 23 20.0183V10.9818C23 9.91334 22.0949 9.04407 20.9823 9.04407ZM20.9823 20.2453H8.01775C7.85421 20.2453 7.71078 20.1392 7.71078 20.0183V12.1767L13.5743 17.127C13.6945 17.2285 13.8474 17.2844 14.0048 17.2844L14.9951 17.2845C15.1524 17.2845 15.3053 17.2285 15.4256 17.127L21.2894 12.1765V20.0183C21.2893 20.1392 21.1458 20.2453 20.9823 20.2453ZM14.5 15.5858L8.79702 10.7548H20.203L14.5 15.5858Z" fill="white"/>
</svg>
