<svg width="30" height="30" viewBox="0 0 30 30" fill="none" xmlns="http://www.w3.org/2000/svg">
<circle cx="15" cy="15" r="15" fill="#D2D2D2"/>
<path d="M15.1418 10.6646C15.1201 10.2591 14.7057 10.3281 14.3013 10.3281C14.6 10.4076 14.8826 10.5183 15.1418 10.6646Z" fill="white"/>
<path d="M10.8191 9.64832C9.24918 9.64832 8.52657 11.6354 9.78157 12.6348C10.2094 11.4924 11.0611 10.6722 12.1776 10.3484C11.8722 9.92619 11.3787 9.64832 10.8191 9.64832Z" fill="white"/>
<path d="M7.57575 12.3238C7.63973 12.5291 7.72262 12.726 7.8211 12.9126L7.3054 13.4286C7.16691 13.5671 7.16691 13.7919 7.3054 13.9307L8.21439 14.84C8.28059 14.9062 8.37129 14.9434 8.46583 14.9434C8.55932 14.9434 8.64941 14.9062 8.71676 14.84L9.23188 14.324C9.30919 14.3649 9.39488 14.39 9.47494 14.4252C9.47494 14.4194 9.47437 14.4133 9.47437 14.4074C9.47437 13.9857 9.5228 13.588 9.60902 13.2144C8.98708 12.8142 8.57207 12.1194 8.57207 11.3261C8.57207 10.0869 9.58008 9.07862 10.819 9.07862C11.6578 9.07862 12.3821 9.54564 12.7688 10.2279C13.1815 10.1768 13.5693 10.1768 14.036 10.2649C13.976 10.0833 13.9053 9.90558 13.8168 9.73897L14.3325 9.22274C14.3998 9.15625 14.4371 9.06583 14.4371 8.97184C14.4371 8.8778 14.3998 8.78742 14.3325 8.72094L13.4241 7.81223C13.3546 7.7427 13.2639 7.70821 13.1732 7.70821C13.0825 7.70821 12.9918 7.7427 12.9228 7.81223L12.4055 8.32847C12.2186 8.22946 12.0222 8.14656 11.8164 8.08398V7.35464C11.8164 7.15884 11.6584 7 11.462 7H10.1764C9.98118 7 9.82148 7.15884 9.82148 7.35464V8.08395C9.61622 8.14653 9.41981 8.22942 9.23235 8.32843L8.71676 7.81277C8.64719 7.74324 8.55653 7.70874 8.46583 7.70874C8.37516 7.70874 8.28396 7.74324 8.21496 7.81249L7.3054 8.72119C7.2392 8.78796 7.20194 8.87805 7.20194 8.97237C7.20194 9.06666 7.2392 9.15679 7.3054 9.22327L7.8211 9.73922C7.72258 9.92614 7.63973 10.1228 7.5769 10.3281H6.84813C6.65175 10.3281 6.49316 10.4872 6.49316 10.6832V11.9689C6.49316 12.1644 6.65175 12.3238 6.84813 12.3238H7.57575Z" fill="white"/>
<path d="M18.7121 19.203C19.2807 18.8912 19.6712 18.2943 19.6712 17.6016C19.6712 16.5908 18.8485 15.7687 17.8377 15.7687C17.4822 15.7687 17.1528 15.8749 16.8714 16.0507C16.7028 16.7216 16.4374 17.3633 16.0903 17.9207C17.0744 18.1057 17.9773 18.5538 18.7121 19.203Z" fill="white"/>
<path d="M22.5063 16.908C22.5063 16.6963 22.3344 16.525 22.1236 16.525H21.337C21.2691 16.3033 21.179 16.0908 21.0722 15.8891L21.629 15.3323C21.7014 15.2605 21.7414 15.1632 21.7414 15.0617C21.7414 14.9601 21.7013 14.8627 21.629 14.7907L20.6488 13.8102C20.5743 13.7354 20.4758 13.6978 20.3779 13.6978C20.28 13.6978 20.1821 13.7354 20.1076 13.8102L19.5496 14.3673C19.3482 14.2605 19.1363 14.171 18.9137 14.1034V13.3168C18.9137 13.1054 18.7429 12.934 18.5315 12.934H17.1447C17.0518 12.934 16.97 12.9713 16.9033 13.0264C17.0201 13.4525 17.0841 13.9145 17.0841 14.4074C17.0841 14.7203 17.0596 15.038 17.014 15.3539C17.2721 15.2588 17.5469 15.199 17.8379 15.199C19.163 15.199 20.2411 16.2769 20.2411 17.6016C20.2411 18.4484 19.7988 19.1905 19.1352 19.6185C19.618 20.1481 20.0019 20.7765 20.2517 21.4804C20.2928 21.4946 20.3356 21.5049 20.3785 21.5049C20.4764 21.5049 20.5743 21.4677 20.6494 21.3928L21.6302 20.4123C21.702 20.3405 21.7414 20.2432 21.7414 20.1417C21.7414 20.0402 21.702 19.9428 21.6302 19.8708L21.0722 19.3137C21.179 19.1123 21.2691 18.8997 21.337 18.6778H22.1236C22.2248 18.6778 22.3233 18.6378 22.3945 18.5654C22.4663 18.4939 22.5069 18.3963 22.5069 18.2948L22.5063 16.908Z" fill="white"/>
<path d="M19.4702 21.8271C18.8755 20.0772 17.304 18.8737 15.4899 18.7099C14.8824 19.3532 14.1303 19.7613 13.2786 19.7613C12.4275 19.7613 11.6748 19.3532 11.0679 18.7099C9.25269 18.8737 7.68113 20.0772 7.08641 21.8274L6.75766 22.795C6.66363 23.0735 6.70866 23.3803 6.88003 23.6192C7.05137 23.8582 7.32731 24 7.62102 24H18.9356C19.2299 24 19.5058 23.8582 19.6772 23.6192C19.8479 23.3803 19.8936 23.0735 19.799 22.795L19.4702 21.8271Z" fill="white"/>
<path d="M10.3286 14.4074C10.3286 16.5778 11.6498 18.9068 13.2786 18.9068C14.9081 18.9068 16.2293 16.5778 16.2293 14.4074C16.2293 9.9083 10.3286 9.89938 10.3286 14.4074Z" fill="white"/>
</svg>
