<svg width="30" height="30" viewBox="0 0 30 30" fill="none" xmlns="http://www.w3.org/2000/svg">
<circle cx="15" cy="15" r="15" fill="#D2D2D2"/>
<path d="M16.2588 10.8022C17.0448 11.2951 17.596 12.129 17.6963 13.0971C18.0169 13.2469 18.3727 13.333 18.7499 13.333C20.127 13.333 21.2431 12.2169 21.2431 10.84C21.2431 9.46289 20.127 8.34674 18.7499 8.34674C17.3859 8.34717 16.2796 9.44337 16.2588 10.8022ZM14.6254 15.9071C16.0025 15.9071 17.1186 14.7907 17.1186 13.4139C17.1186 12.037 16.0023 10.9208 14.6254 10.9208C13.2485 10.9208 12.1317 12.0372 12.1317 13.4141C12.1317 14.791 13.2485 15.9071 14.6254 15.9071ZM15.683 16.077H13.5674C11.8071 16.077 10.3751 17.5093 10.3751 19.2696V21.8568L10.3816 21.8973L10.5599 21.9531C12.2397 22.478 13.6991 22.653 14.9003 22.653C17.2466 22.653 18.6065 21.9841 18.6903 21.9414L18.8568 21.8572H18.8746V19.2696C18.8753 17.5093 17.4432 16.077 15.683 16.077ZM19.8079 13.5032H17.7086C17.6859 14.3431 17.3274 15.0994 16.7603 15.6434C18.3249 16.1087 19.4697 17.5596 19.4697 19.2734V20.0707C21.5425 19.9947 22.7369 19.4072 22.8156 19.3678L22.9822 19.2833H23V16.6953C23 14.9352 21.568 13.5032 19.8079 13.5032ZM10.2505 13.3335C10.7383 13.3335 11.1921 13.1911 11.5765 12.9486C11.6987 12.1515 12.126 11.455 12.7364 10.9806C12.7389 10.934 12.7434 10.8877 12.7434 10.8406C12.7434 9.46353 11.627 8.34738 10.2505 8.34738C8.87322 8.34738 7.75728 9.46353 7.75728 10.8406C7.75728 12.2171 8.87322 13.3335 10.2505 13.3335ZM12.4896 15.6434C11.9253 15.1022 11.568 14.3499 11.5419 13.5151C11.4641 13.5093 11.387 13.5032 11.3077 13.5032H9.1923C7.43205 13.5032 6 14.9352 6 16.6953V19.2829L6.00658 19.3228L6.18479 19.379C7.5324 19.7997 8.73511 19.9936 9.77976 20.0547V19.2734C9.78018 17.5596 10.9245 16.1091 12.4896 15.6434Z" fill="white"/>
</svg>
