<svg width="30" height="30" viewBox="0 0 30 30" fill="none" xmlns="http://www.w3.org/2000/svg">
<circle cx="15" cy="15" r="15" fill="#FDA0EE"/>
<path d="M20.9081 10.7816V7.8498C20.9081 7.38241 20.5344 7 20.0773 7H9.8308C9.37386 7 9 7.38241 9 7.8498V8.40216V19.4778V19.8604C9 20.1718 9.18001 20.4693 9.44309 20.6109L15.7571 23.9536C16.0341 24.0952 16.3664 23.8971 16.3664 23.5712V20.3136H20.0773C20.5344 20.3136 20.9081 19.9314 20.9081 19.4638V14.8183H19.2465V18.1891C19.2465 18.4299 19.0665 18.614 18.8311 18.614H16.3802V14.2517V11.4899V11.4049C16.3802 11.0933 16.2002 10.7959 15.9371 10.6543L12.2124 8.69974H18.8311C19.0665 8.69974 19.2465 8.88386 19.2465 9.12463V10.7959H20.9081V10.7816Z" fill="white"/>
<path d="M23.0397 9.39354L25.7398 12.1554C26.086 12.5095 26.086 13.0335 25.7398 13.3876L23.0397 16.1494C22.6935 16.5035 22.1672 16.5178 21.8211 16.1637C21.4889 15.824 21.5303 15.2573 21.8489 14.9174L23.0673 13.6852H18.3457C18.1105 13.6852 17.8749 13.586 17.7226 13.4019C17.3349 12.977 17.4318 12.2263 17.9303 11.9431C18.0549 11.8723 18.2072 11.8298 18.3457 11.8298H23.0674C23.0674 11.8298 21.8629 10.5976 21.849 10.5976C21.5304 10.2718 21.4889 9.69111 21.8212 9.36536C22.1535 9.02544 22.6935 9.03946 23.0397 9.39354Z" fill="white"/>
</svg>
