<svg width="30" height="30" viewBox="0 0 30 30" fill="none" xmlns="http://www.w3.org/2000/svg">
<circle cx="15" cy="15" r="15" fill="#D2D2D2"/>
<g clip-path="url(#clip0)">
<path d="M20.7491 13.456L20.6682 13.4271L20.3524 12.6733L20.3866 12.5958C21.3434 10.4259 21.2774 10.3611 21.1187 10.2038L19.8425 8.95882C19.7903 8.90706 19.6987 8.87065 19.6197 8.87065C19.5479 8.87065 19.3304 8.87065 17.4456 9.72435L17.37 9.75827L16.5923 9.44511L16.5611 9.3677C15.6747 7.17291 15.5839 7.17291 15.3634 7.17291H13.5611C13.3413 7.17291 13.2412 7.17291 12.4193 9.37151L12.3884 9.45155L11.6147 9.76692L11.5408 9.73616C10.265 9.19829 9.52005 8.92554 9.32587 8.92554C9.24707 8.92554 9.15513 8.96089 9.10272 9.01252L7.82531 10.2611C7.66325 10.421 7.59604 10.4879 8.60292 12.6125L8.63992 12.6913L8.32359 13.4444L8.24618 13.4743C6 14.3424 6 14.427 6 14.6531V16.4192C6 16.6459 6 16.7401 8.25063 17.5466L8.33109 17.575L8.64746 18.3259L8.61349 18.4026C7.65673 20.5736 7.71741 20.6323 7.88029 20.7943L9.15458 22.041C9.20799 22.0924 9.30044 22.1291 9.37929 22.1291C9.45063 22.1291 9.66762 22.1291 11.5537 21.2758L11.6293 21.2404L12.4074 21.5551L12.4377 21.633C13.3246 23.827 13.4157 23.827 13.6364 23.827H15.4393C15.6657 23.827 15.7596 23.827 16.5821 21.627L16.6128 21.5469L17.3876 21.2336L17.4614 21.2637C18.7361 21.8031 19.4807 22.0753 19.6736 22.0753C19.7517 22.0753 19.8445 22.041 19.8978 21.9882L21.1773 20.7369C21.3382 20.5763 21.4053 20.5106 20.3966 18.388L20.3591 18.3082L20.6749 17.5584L20.7503 17.5289C23 16.6563 23 16.5712 23 16.3449V14.5798C23 14.3532 23 14.2596 20.7491 13.456ZM14.5 18.3643C12.8892 18.3643 11.5788 17.079 11.5788 15.5003C11.5788 13.9215 12.8893 12.6379 14.5 12.6379C16.11 12.6379 17.4202 13.9218 17.4202 15.5003C17.4202 17.0787 16.1101 18.3643 14.5 18.3643Z" fill="white"/>
</g>
<defs>
<clipPath id="clip0">
<rect width="17" height="17" fill="white" transform="translate(6 7)"/>
</clipPath>
</defs>
</svg>
